<?xml version="1.0" encoding="UTF-8"?>
<svg version="1.1" xmlns="http://www.w3.org/2000/svg" width="1024" height="1024">
<path d="M0 0 C337.92 0 675.84 0 1024 0 C1024 337.92 1024 675.84 1024 1024 C686.08 1024 348.16 1024 0 1024 C0 686.08 0 348.16 0 0 Z " fill="#0F1C22" transform="translate(0,0)"/>
<path d="M0 0 C1.11589054 -0.0055344 2.23178107 -0.01106879 3.38148648 -0.0167709 C7.08683761 -0.03028543 10.79150437 -0.0154576 14.49684143 -0.00050354 C17.16715827 -0.00429008 19.83743073 -0.00964126 22.50773621 -0.01687622 C28.98760569 -0.03075467 35.46727929 -0.02329244 41.94713932 -0.00820064 C49.50608005 0.00872869 57.06497292 0.00544044 64.62392677 0.00170528 C78.11920203 -0.00416353 91.61438378 0.00995916 105.1096344 0.03465271 C118.17998256 0.05856581 131.25020579 0.06565755 144.3205719 0.05516052 C158.58012922 0.04372882 172.83962887 0.04184939 187.09918553 0.05625862 C188.62227666 0.05778433 190.1453678 0.05930468 191.66845894 0.06081963 C192.79230843 0.06195635 192.79230843 0.06195635 193.93886195 0.06311603 C199.19728146 0.06784186 204.45567506 0.06601952 209.71409416 0.06175423 C216.13053832 0.0568069 222.54686481 0.06290323 228.96328216 0.08264852 C232.23179749 0.09246177 235.50009964 0.09606131 238.76862907 0.08975601 C274.2011691 0.02999628 274.2011691 0.02999628 289.0927887 13.81370544 C300.52400828 26.12214092 301.73141318 39.93282231 301.65260315 55.96287537 C301.65503528 57.70519223 301.65875866 59.44750769 301.66366577 61.18981934 C301.67301869 65.89211002 301.66369782 70.59419051 301.65033364 75.29646468 C301.63896333 80.23078526 301.64313081 85.16509634 301.64508057 90.09942627 C301.64596153 98.38011584 301.63492241 106.66072324 301.61647034 114.94139099 C301.59528479 124.50326586 301.5917985 134.06502061 301.5980323 143.6269142 C301.60373346 152.84533021 301.59807276 162.0637041 301.58685875 171.28211403 C301.58222489 175.19698684 301.58133362 179.1118338 301.5834446 183.0267086 C301.58533299 187.63722696 301.57718132 192.24762363 301.5613842 196.85811424 C301.55715493 198.54633073 301.55628163 200.2345596 301.5590744 201.92277908 C301.56231665 204.23385846 301.55316369 206.54457885 301.54098511 208.85562134 C301.53893224 210.1465932 301.53687937 211.43756506 301.53476429 212.76765728 C300.76202916 224.10486952 296.19798903 233.62606713 287.9365387 241.39183044 C278.20672168 249.11844984 268.508071 253.13417474 256.16700745 251.93089294 C244.4993641 250.93127692 233.56147448 250.16359878 224.00491333 257.90107727 C216.93530528 264.18924064 210.64721516 271.2866785 204.66749573 278.60618591 C199.93635181 284.3437503 199.93635181 284.3437503 196.1552887 285.25120544 C190.92196613 284.2383043 188.89949846 281.60601164 185.37013245 277.76292419 C183.23913882 275.3416923 183.23913882 275.3416923 180.2177887 273.06370544 C179.5784137 272.54808044 178.9390387 272.03245544 178.2802887 271.50120544 C178.2802887 270.84120544 178.2802887 270.18120544 178.2802887 269.50120544 C177.67576685 269.23724787 177.071245 268.97329029 176.44840431 268.701334 C174.16614256 267.43802153 173.14675946 266.36004217 171.59043884 264.29914856 C166.21929985 257.73563945 161.57500026 252.87281402 152.84368324 251.94286537 C148.07472726 251.72512674 143.33993011 251.78919566 138.5693512 251.91526794 C136.50427942 251.91894983 134.43918823 251.91643227 132.37413025 251.90803528 C126.98352649 251.90252223 121.59733963 251.98023427 116.2077179 252.07633972 C110.69042333 252.15964927 105.17311706 252.16281847 99.6552887 252.17308044 C88.86176792 252.20479169 78.0725303 252.33199242 67.2802887 252.50120544 C67.2802887 263.06120544 67.2802887 273.62120544 67.2802887 284.50120544 C56.2802887 284.50120544 56.2802887 284.50120544 53.34815979 282.93675232 C52.6322467 282.20520935 51.91633362 281.47366638 51.1787262 280.71995544 C50.35856018 279.89753357 49.53839417 279.07511169 48.69337463 278.22776794 C46.28070636 275.50167736 44.00944451 272.70427839 41.7568512 269.84495544 C31.86616734 257.5456685 31.86616734 257.5456685 17.55500793 252.12425232 C9.72571661 251.46684157 1.92387099 251.79289443 -5.90663147 252.27537537 C-13.71174439 252.72123079 -19.76776429 251.45885589 -26.5947113 247.50120544 C-27.49963318 246.98558044 -28.40455505 246.46995544 -29.3368988 245.93870544 C-31.15979892 244.83898865 -32.94833468 243.68212319 -34.7197113 242.50120544 C-34.7197113 241.84120544 -34.7197113 241.18120544 -34.7197113 240.50120544 C-35.59949646 240.16089294 -35.59949646 240.16089294 -36.49705505 239.81370544 C-39.34898021 238.12961607 -40.51095422 236.29083629 -42.2822113 233.50120544 C-43.1503949 232.17089294 -43.1503949 232.17089294 -44.03611755 230.81370544 C-49.13382813 220.78387119 -49.16136947 210.95262741 -49.13963318 199.95701599 C-49.14698328 198.19339972 -49.15557223 196.42978824 -49.16529846 194.66618347 C-49.18742487 189.89948287 -49.19044958 185.1329556 -49.18855095 180.3662107 C-49.18843083 176.37548169 -49.1970119 172.38478885 -49.20532846 168.39406997 C-49.22453086 158.97248161 -49.227458 149.55098184 -49.22068787 140.12937927 C-49.21405034 130.43628927 -49.23690721 120.74358012 -49.2740016 111.05056733 C-49.30477256 102.70456185 -49.31605059 94.35867842 -49.31216478 86.01261741 C-49.31010482 81.03846327 -49.3154596 76.06460559 -49.34005737 71.0905056 C-49.3624444 66.40924391 -49.36034808 61.72859816 -49.34012985 57.04733276 C-49.33674078 55.33863145 -49.3417172 53.62988769 -49.35611343 51.92124367 C-49.46858011 37.57218084 -46.91302609 24.40062907 -36.7197113 13.50120544 C-25.77218315 4.20972907 -14.42775177 -0.13607391 0 0 Z " fill="#182E31" transform="translate(385.71971130371094,336.49879455566406)"/>
<path d="M0 0 C1.19044922 -0.00515625 2.38089844 -0.0103125 3.60742188 -0.015625 C4.85201172 -0.00015625 6.09660156 0.0153125 7.37890625 0.03125 C8.61962891 0.01578125 9.86035156 0.0003125 11.13867188 -0.015625 C12.9262793 -0.00789063 12.9262793 -0.00789063 14.75 0 C15.84111084 0.00451172 16.93222168 0.00902344 18.05639648 0.01367188 C21.66266484 0.66064563 22.83386854 1.55575556 24.94140625 4.53125 C25.45898438 7.21679688 25.45898438 7.21679688 25.47265625 10.25 C25.48039063 11.89548828 25.48039063 11.89548828 25.48828125 13.57421875 C25.4728125 14.71503906 25.45734375 15.85585938 25.44140625 17.03125 C25.456875 18.17207031 25.47234375 19.31289063 25.48828125 20.48828125 C25.483125 21.58527344 25.47796875 22.68226563 25.47265625 23.8125 C25.46814453 24.81345703 25.46363281 25.81441406 25.45898438 26.84570312 C24.7895516 30.31917505 23.80364545 31.47961989 20.94140625 33.53125 C18.1640625 34.04882812 18.1640625 34.04882812 15.00390625 34.0625 C13.29074219 34.07023437 13.29074219 34.07023437 11.54296875 34.078125 C10.35445312 34.06265625 9.1659375 34.0471875 7.94140625 34.03125 C6.75289063 34.04671875 5.564375 34.0621875 4.33984375 34.078125 C3.19773437 34.07296875 2.055625 34.0678125 0.87890625 34.0625 C-0.16394531 34.05798828 -1.20679688 34.05347656 -2.28125 34.04882812 C-5.81258043 33.39073912 -6.9808967 32.4404537 -9.05859375 29.53125 C-9.56030273 26.84570312 -9.56030273 26.84570312 -9.5546875 23.8125 C-9.55533203 22.71550781 -9.55597656 21.61851562 -9.55664062 20.48828125 C-9.53666016 19.34746094 -9.51667969 18.20664062 -9.49609375 17.03125 C-9.50318359 15.89042969 -9.51027344 14.74960937 -9.51757812 13.57421875 C-9.45462919 5.33275029 -9.45462919 5.33275029 -7.91015625 2.20703125 C-5.28918839 -0.16511054 -3.50001122 0.01448744 0 0 Z " fill="#46EEA3" transform="translate(504.05859375,465.46875)"/>
<path d="M0 0 C1.87365234 -0.0299707 1.87365234 -0.0299707 3.78515625 -0.06054688 C4.98011719 -0.05990234 6.17507813 -0.05925781 7.40625 -0.05859375 C8.50259766 -0.06044678 9.59894531 -0.0622998 10.72851562 -0.06420898 C13.5 0.4375 13.5 0.4375 15.35375977 2.11108398 C17.62793745 6.72676857 16.96884666 11.89353745 16.9375 16.9375 C16.9674707 18.64873047 16.9674707 18.64873047 16.99804688 20.39453125 C16.99740234 21.49152344 16.99675781 22.58851563 16.99609375 23.71875 C16.99887329 25.22018555 16.99887329 25.22018555 17.00170898 26.75195312 C16.35104393 30.23483176 15.36967129 31.38709384 12.5 33.4375 C9.70678711 33.93920898 9.70678711 33.93920898 6.52734375 33.93359375 C5.38072266 33.93423828 4.23410156 33.93488281 3.05273438 33.93554688 C1.85970703 33.91556641 0.66667969 33.89558594 -0.5625 33.875 C-1.75939453 33.88208984 -2.95628906 33.88917969 -4.18945312 33.89648438 C-12.86506807 33.83301617 -12.86506807 33.83301617 -15.34008789 32.29125977 C-17.01828183 29.60918724 -16.88872197 27.49158065 -16.8984375 24.34375 C-16.90230469 23.14878906 -16.90617188 21.95382812 -16.91015625 20.72265625 C-16.89855469 19.47355469 -16.88695312 18.22445313 -16.875 16.9375 C-16.88660156 15.68839844 -16.89820313 14.43929688 -16.91015625 13.15234375 C-16.90628906 11.95738281 -16.90242187 10.76242187 -16.8984375 9.53125 C-16.89505371 8.43490234 -16.89166992 7.33855469 -16.88818359 6.20898438 C-16.5 3.4375 -16.5 3.4375 -15.35595703 1.58374023 C-11.02437897 -1.09144511 -4.9252899 -0.02795572 0 0 Z " fill="#48EBA4" transform="translate(595.5,465.5625)"/>
<path d="M0 0 C1.87365234 -0.0299707 1.87365234 -0.0299707 3.78515625 -0.06054688 C4.98011719 -0.05990234 6.17507813 -0.05925781 7.40625 -0.05859375 C8.50259766 -0.06044678 9.59894531 -0.0622998 10.72851562 -0.06420898 C13.5 0.4375 13.5 0.4375 15.35375977 2.11108398 C17.62793745 6.72676857 16.96884666 11.89353745 16.9375 16.9375 C16.9674707 18.64873047 16.9674707 18.64873047 16.99804688 20.39453125 C16.99740234 21.49152344 16.99675781 22.58851563 16.99609375 23.71875 C16.99887329 25.22018555 16.99887329 25.22018555 17.00170898 26.75195312 C16.35104393 30.23483176 15.36967129 31.38709384 12.5 33.4375 C9.70678711 33.93920898 9.70678711 33.93920898 6.52734375 33.93359375 C5.38072266 33.93423828 4.23410156 33.93488281 3.05273438 33.93554688 C1.85970703 33.91556641 0.66667969 33.89558594 -0.5625 33.875 C-1.75939453 33.88208984 -2.95628906 33.88917969 -4.18945312 33.89648438 C-12.86506807 33.83301617 -12.86506807 33.83301617 -15.34008789 32.29125977 C-17.01828183 29.60918724 -16.88872197 27.49158065 -16.8984375 24.34375 C-16.90230469 23.14878906 -16.90617187 21.95382812 -16.91015625 20.72265625 C-16.89855469 19.47355469 -16.88695312 18.22445313 -16.875 16.9375 C-16.88660156 15.68839844 -16.89820313 14.43929688 -16.91015625 13.15234375 C-16.90628906 11.95738281 -16.90242188 10.76242187 -16.8984375 9.53125 C-16.89505371 8.43490234 -16.89166992 7.33855469 -16.88818359 6.20898438 C-16.5 3.4375 -16.5 3.4375 -15.35595703 1.58374023 C-11.02437897 -1.09144511 -4.9252899 -0.02795572 0 0 Z " fill="#47ECA3" transform="translate(428.5,465.5625)"/>
<path d="M0 0 C1.29357422 -0.00386719 1.29357422 -0.00386719 2.61328125 -0.0078125 C3.50660156 -0.00007813 4.39992188 0.00765625 5.3203125 0.015625 C6.20589844 0.00789063 7.09148437 0.00015625 8.00390625 -0.0078125 C13.84664069 0.00960251 18.84954228 0.16485382 23.57568359 3.98974609 C25.90521693 6.82546166 25.95997481 8.28076677 25.9765625 11.9140625 C25.98429687 13.54601562 25.98429687 13.54601562 25.9921875 15.2109375 C25.97671875 16.34273438 25.96125 17.47453125 25.9453125 18.640625 C25.96078125 19.7646875 25.97625 20.88875 25.9921875 22.046875 C25.96232986 28.36176515 25.80788026 32.52865777 21.4453125 37.265625 C18.01437466 38.98109392 14.1693586 38.73749026 10.3828125 38.953125 C9.56103516 39.01306641 8.73925781 39.07300781 7.89257812 39.13476562 C2.26545504 39.45795995 -3.22627728 39.29935294 -8.5546875 37.265625 C-10.5546875 34.765625 -10.5546875 34.765625 -11.5546875 32.265625 C-11.8846875 31.605625 -12.2146875 30.945625 -12.5546875 30.265625 C-12.84896018 26.68889278 -12.83269304 23.10304908 -12.8671875 19.515625 C-12.89619141 18.525625 -12.92519531 17.535625 -12.95507812 16.515625 C-13.00635066 10.61533982 -12.74076818 6.81093152 -8.5546875 2.265625 C-5.62082785 0.47062965 -3.41871742 0.00990317 0 0 Z M-8.41064453 4.41186523 C-10.06687998 7.09556044 -9.94343898 9.22110327 -9.953125 12.359375 C-9.95699219 13.55433594 -9.96085937 14.74929688 -9.96484375 15.98046875 C-9.95324219 17.22957031 -9.94164062 18.47867187 -9.9296875 19.765625 C-9.94128906 21.01472656 -9.95289063 22.26382812 -9.96484375 23.55078125 C-9.96097656 24.74574219 -9.95710938 25.94070313 -9.953125 27.171875 C-9.94974121 28.26822266 -9.94635742 29.36457031 -9.94287109 30.49414062 C-9.75153887 33.23115812 -9.75153887 33.23115812 -8.39477539 35.11938477 C-4.19825559 37.73350981 1.60000959 36.73145609 6.3828125 36.703125 C7.57583984 36.72310547 8.76886719 36.74308594 9.99804688 36.76367188 C11.71797852 36.76270508 11.71797852 36.76270508 13.47265625 36.76171875 C15.04648071 36.76449829 15.04648071 36.76449829 16.65209961 36.76733398 C20.20273524 36.12957887 21.36229211 35.18890943 23.4453125 32.265625 C24.04070134 29.53847492 24.04070134 29.53847492 23.94140625 26.546875 C23.94205078 25.44988281 23.94269531 24.35289062 23.94335938 23.22265625 C23.92337891 22.08183594 23.90339844 20.94101562 23.8828125 19.765625 C23.88990234 18.62480469 23.89699219 17.48398437 23.90429688 16.30859375 C24.00959665 10.44055858 24.00959665 10.44055858 22.29907227 4.93920898 C19.66537997 2.56149784 17.86322061 2.76359591 14.3515625 2.76953125 C13.15660156 2.76888672 11.96164062 2.76824219 10.73046875 2.76757812 C8.85681641 2.79754883 8.85681641 2.79754883 6.9453125 2.828125 C5.07166016 2.81749023 5.07166016 2.81749023 3.16015625 2.80664062 C-2.87714764 2.53449089 -2.87714764 2.53449089 -8.41064453 4.41186523 Z " fill="#125F44" transform="translate(421.5546875,462.734375)"/>
<path d="M0 0 C0.495 1.485 0.495 1.485 1 3 C1.66 3 2.32 3 3 3 C4.61456863 7.8437059 4.22615798 12.80260983 4.25 17.875 C4.270625 18.96425781 4.29125 20.05351562 4.3125 21.17578125 C4.32023438 22.75552734 4.32023438 22.75552734 4.328125 24.3671875 C4.34214355 25.80747314 4.34214355 25.80747314 4.35644531 27.27685547 C3.81043278 31.44824162 1.9315216 34.0684784 -1 37 C-6.54816561 38.15974559 -11.93583334 38.10484027 -17.5625 37.875 C-18.38685547 37.8646875 -19.21121094 37.854375 -20.06054688 37.84375 C-24.22844843 37.67050389 -27.17817426 37.3023308 -30.52734375 34.6953125 C-34.67830903 30.17056362 -34.16476155 26.18612548 -34.125 20.25 C-34.12161621 19.53497314 -34.11823242 18.81994629 -34.11474609 18.08325195 C-33.99126652 5.48689978 -33.99126652 5.48689978 -31 1 C-21.02412328 -2.17414259 -10.23976933 -0.850441 0 0 Z M-29.85595703 3.14624023 C-31.51219248 5.82993544 -31.38875148 7.95547827 -31.3984375 11.09375 C-31.40230469 12.28871094 -31.40617188 13.48367188 -31.41015625 14.71484375 C-31.39855469 15.96394531 -31.38695312 17.21304687 -31.375 18.5 C-31.38660156 19.74910156 -31.39820313 20.99820312 -31.41015625 22.28515625 C-31.40628906 23.48011719 -31.40242187 24.67507813 -31.3984375 25.90625 C-31.39505371 27.00259766 -31.39166992 28.09894531 -31.38818359 29.22851562 C-31.19685137 31.96553312 -31.19685137 31.96553312 -29.84008789 33.85375977 C-25.64356809 36.46788481 -19.84530291 35.46583109 -15.0625 35.4375 C-13.86947266 35.45748047 -12.67644531 35.47746094 -11.44726562 35.49804688 C-9.72733398 35.49708008 -9.72733398 35.49708008 -7.97265625 35.49609375 C-6.39883179 35.49887329 -6.39883179 35.49887329 -4.79321289 35.50170898 C-1.24257726 34.86395387 -0.08302039 33.92328443 2 31 C2.59538884 28.27284992 2.59538884 28.27284992 2.49609375 25.28125 C2.49673828 24.18425781 2.49738281 23.08726562 2.49804688 21.95703125 C2.47806641 20.81621094 2.45808594 19.67539062 2.4375 18.5 C2.44458984 17.35917969 2.45167969 16.21835937 2.45898438 15.04296875 C2.56428415 9.17493358 2.56428415 9.17493358 0.85375977 3.67358398 C-1.77993253 1.29587284 -3.58209189 1.49797091 -7.09375 1.50390625 C-8.28871094 1.50326172 -9.48367188 1.50261719 -10.71484375 1.50195312 C-12.58849609 1.53192383 -12.58849609 1.53192383 -14.5 1.5625 C-16.37365234 1.55186523 -16.37365234 1.55186523 -18.28515625 1.54101562 C-24.32246014 1.26886589 -24.32246014 1.26886589 -29.85595703 3.14624023 Z " fill="#0E5F42" transform="translate(610,464)"/>
<path d="M0 0 C1.18464844 -0.02900391 2.36929688 -0.05800781 3.58984375 -0.08789062 C5.30494141 -0.10045898 5.30494141 -0.10045898 7.0546875 -0.11328125 C8.62065674 -0.13515503 8.62065674 -0.13515503 10.21826172 -0.1574707 C13.85147713 0.42995914 15.49914689 1.78854479 18.125 4.3125 C19.91701163 7.89652326 19.60146818 12.04667054 19.8125 16 C19.87244141 16.88623047 19.93238281 17.77246094 19.99414062 18.68554688 C20.62116863 30.28985971 20.62116863 30.28985971 16.85864258 34.84594727 C11.54590578 39.47970383 5.68576578 38.85890584 -1 38.4375 C-2.07121094 38.40914063 -3.14242188 38.38078125 -4.24609375 38.3515625 C-12.92634801 37.91917125 -12.92634801 37.91917125 -16.0546875 34.8671875 C-19.87675502 29.50317 -19.09637026 24.36487682 -19.125 17.9375 C-19.145625 16.78765625 -19.16625 15.6378125 -19.1875 14.453125 C-19.19265625 13.34710938 -19.1978125 12.24109375 -19.203125 11.1015625 C-19.2124707 10.08787598 -19.22181641 9.07418945 -19.23144531 8.02978516 C-18.81989287 4.8924025 -18.07500719 3.55697131 -15.875 1.3125 C-10.74785256 -0.39654915 -5.36762602 0.04352129 0 0 Z M-15.7265625 3.98828125 C-18.00560591 8.60063102 -17.34383841 13.76986508 -17.3125 18.8125 C-17.33248047 19.95332031 -17.35246094 21.09414063 -17.37304688 22.26953125 C-17.37240234 23.36652344 -17.37175781 24.46351563 -17.37109375 25.59375 C-17.37294678 26.59470703 -17.3747998 27.59566406 -17.37670898 28.62695312 C-16.72623992 32.10878267 -15.74125706 33.25991905 -12.875 35.3125 C-10.05072842 35.92453372 -10.05072842 35.92453372 -6.9375 35.84375 C-5.79539062 35.84890625 -4.65328125 35.8540625 -3.4765625 35.859375 C-2.28804688 35.84390625 -1.09953125 35.8284375 0.125 35.8125 C1.31351563 35.82796875 2.50203125 35.8434375 3.7265625 35.859375 C5.43972656 35.85164063 5.43972656 35.85164063 7.1875 35.84375 C8.23035156 35.83923828 9.27320313 35.83472656 10.34765625 35.83007812 C13.87908928 35.17197 15.04553609 34.2203285 17.125 31.3125 C17.73619411 28.58637259 17.73619411 28.58637259 17.65625 25.59375 C17.66140625 24.49675781 17.6665625 23.39976562 17.671875 22.26953125 C17.65640625 21.12871094 17.6409375 19.98789062 17.625 18.8125 C17.64046875 17.67167969 17.6559375 16.53085937 17.671875 15.35546875 C17.66414062 13.70998047 17.66414062 13.70998047 17.65625 12.03125 C17.65173828 11.03029297 17.64722656 10.02933594 17.64257812 8.99804688 C16.97163482 5.51673728 16.00196237 4.36078023 13.125 2.3125 C10.18608655 1.69963191 10.18608655 1.69963191 6.93359375 1.78125 C5.14598633 1.77351563 5.14598633 1.77351563 3.32226562 1.765625 C2.08154297 1.78109375 0.84082031 1.7965625 -0.4375 1.8125 C-1.68208984 1.79703125 -2.92667969 1.7815625 -4.20898438 1.765625 C-5.39943359 1.77078125 -6.58988281 1.7759375 -7.81640625 1.78125 C-8.90638916 1.78576172 -9.99637207 1.79027344 -11.11938477 1.79492188 C-13.9375963 2.07575781 -13.9375963 2.07575781 -15.7265625 3.98828125 Z " fill="#0C5E42" transform="translate(511.875,463.6875)"/>
<path d="M0 0 C1.19044922 -0.00515625 2.38089844 -0.0103125 3.60742188 -0.015625 C4.85201172 -0.00015625 6.09660156 0.0153125 7.37890625 0.03125 C8.61962891 0.01578125 9.86035156 0.0003125 11.13867188 -0.015625 C12.9262793 -0.00789063 12.9262793 -0.00789063 14.75 0 C15.84111084 0.00451172 16.93222168 0.00902344 18.05639648 0.01367188 C21.66266484 0.66064563 22.83386854 1.55575556 24.94140625 4.53125 C25.45898438 7.21679688 25.45898438 7.21679688 25.47265625 10.25 C25.48039063 11.89548828 25.48039063 11.89548828 25.48828125 13.57421875 C25.4728125 14.71503906 25.45734375 15.85585938 25.44140625 17.03125 C25.456875 18.17207031 25.47234375 19.31289063 25.48828125 20.48828125 C25.483125 21.58527344 25.47796875 22.68226563 25.47265625 23.8125 C25.46814453 24.81345703 25.46363281 25.81441406 25.45898438 26.84570312 C24.7895516 30.31917505 23.80364545 31.47961989 20.94140625 33.53125 C18.1640625 34.04882812 18.1640625 34.04882812 15.00390625 34.0625 C13.29074219 34.07023437 13.29074219 34.07023437 11.54296875 34.078125 C10.35445312 34.06265625 9.1659375 34.0471875 7.94140625 34.03125 C6.75289063 34.04671875 5.564375 34.0621875 4.33984375 34.078125 C3.19773437 34.07296875 2.055625 34.0678125 0.87890625 34.0625 C-0.16394531 34.05798828 -1.20679688 34.05347656 -2.28125 34.04882812 C-5.81258043 33.39073912 -6.9808967 32.4404537 -9.05859375 29.53125 C-9.56030273 26.84570312 -9.56030273 26.84570312 -9.5546875 23.8125 C-9.55533203 22.71550781 -9.55597656 21.61851562 -9.55664062 20.48828125 C-9.53666016 19.34746094 -9.51667969 18.20664062 -9.49609375 17.03125 C-9.50318359 15.89042969 -9.51027344 14.74960937 -9.51757812 13.57421875 C-9.45462919 5.33275029 -9.45462919 5.33275029 -7.91015625 2.20703125 C-5.28918839 -0.16511054 -3.50001122 0.01448744 0 0 Z M-5.89160156 3.72998047 C-7.47074363 6.16740937 -7.43116291 7.85618813 -7.421875 10.75 C-7.42123047 11.76449219 -7.42058594 12.77898437 -7.41992188 13.82421875 C-7.40380859 14.88253906 -7.38769531 15.94085938 -7.37109375 17.03125 C-7.37431641 18.08957031 -7.37753906 19.14789063 -7.38085938 20.23828125 C-7.51333479 26.2323278 -7.51333479 26.2323278 -5.05859375 31.53125 C-2.49383492 31.99771514 -2.49383492 31.99771514 0.5 31.9296875 C1.60794922 31.93355469 2.71589844 31.93742187 3.85742188 31.94140625 C5.01951172 31.92980469 6.18160156 31.91820312 7.37890625 31.90625 C8.53712891 31.91785156 9.69535156 31.92945313 10.88867188 31.94140625 C11.99791016 31.93753906 13.10714844 31.93367188 14.25 31.9296875 C15.77838501 31.92461182 15.77838501 31.92461182 17.33764648 31.91943359 C19.93524045 31.71756486 19.93524045 31.71756486 21.77441406 30.33251953 C23.35355613 27.89509063 23.31397541 26.20631187 23.3046875 23.3125 C23.30404297 22.29800781 23.30339844 21.28351563 23.30273438 20.23828125 C23.28662109 19.17996094 23.27050781 18.12164062 23.25390625 17.03125 C23.25712891 15.97292969 23.26035156 14.91460937 23.26367188 13.82421875 C23.39614729 7.8301722 23.39614729 7.8301722 20.94140625 2.53125 C18.37664742 2.06478486 18.37664742 2.06478486 15.3828125 2.1328125 C14.27486328 2.12894531 13.16691406 2.12507813 12.02539062 2.12109375 C10.86330078 2.13269531 9.70121094 2.14429688 8.50390625 2.15625 C7.34568359 2.14464844 6.18746094 2.13304687 4.99414062 2.12109375 C3.88490234 2.12496094 2.77566406 2.12882812 1.6328125 2.1328125 C0.61388916 2.13619629 -0.40503418 2.13958008 -1.45483398 2.14306641 C-4.05242795 2.34493514 -4.05242795 2.34493514 -5.89160156 3.72998047 Z " fill="#56DEA5" transform="translate(504.05859375,465.46875)"/>
<path d="M0 0 C0.495 1.485 0.495 1.485 1 3 C1.66 3 2.32 3 3 3 C4.00005304 6.00015912 4.11575585 7.97423756 4.09765625 11.10546875 C4.09443359 12.08837891 4.09121094 13.07128906 4.08789062 14.08398438 C4.07532227 15.62022461 4.07532227 15.62022461 4.0625 17.1875 C4.05798828 18.22326172 4.05347656 19.25902344 4.04882812 20.32617188 C4.0370401 22.88417266 4.02058515 25.44205733 4 28 C3.67 28 3.34 28 3 28 C2.98541748 27.38479492 2.97083496 26.76958984 2.95581055 26.13574219 C2.88119423 23.33987146 2.7845802 20.54517713 2.6875 17.75 C2.65366211 16.29787109 2.65366211 16.29787109 2.61914062 14.81640625 C2.58369141 13.88183594 2.54824219 12.94726562 2.51171875 11.984375 C2.48553467 11.12553711 2.45935059 10.26669922 2.43237305 9.38183594 C1.88928356 6.3900906 1.25907109 5.05519227 -1 3 C-4.09557858 2.44647806 -4.09557858 2.44647806 -7.63671875 2.609375 C-8.93544922 2.62226563 -10.23417969 2.63515625 -11.57226562 2.6484375 C-12.94402103 2.68185899 -14.31576581 2.71571877 -15.6875 2.75 C-17.07093812 2.77006624 -18.45440384 2.78831681 -19.83789062 2.8046875 C-23.22555699 2.85190236 -26.61286511 2.9236463 -30 3 C-30.33 12.24 -30.66 21.48 -31 31 C-31.33 31 -31.66 31 -32 31 C-32.0246985 27.04900072 -32.04285923 23.09803126 -32.05493164 19.14697266 C-32.06244036 17.14093449 -32.0751447 15.13491798 -32.08789062 13.12890625 C-32.09111328 11.87207031 -32.09433594 10.61523438 -32.09765625 9.3203125 C-32.10289307 8.15773926 -32.10812988 6.99516602 -32.11352539 5.79736328 C-32 3 -32 3 -31 1 C-20.83563903 -1.94095723 -10.3785838 -0.86196992 0 0 Z " fill="#1D7254" transform="translate(610,464)"/>
<path d="M0 0 C4.41632177 -0.14509751 8.83203193 -0.23400818 13.25 -0.3125 C14.50425781 -0.35439453 15.75851562 -0.39628906 17.05078125 -0.43945312 C18.85869141 -0.46362305 18.85869141 -0.46362305 20.703125 -0.48828125 C22.36843262 -0.52755737 22.36843262 -0.52755737 24.06738281 -0.56762695 C27 0 27 0 29.35107422 2.24194336 C30.99824912 4.9970714 31.54117963 6.46199153 31.6796875 9.6171875 C31.7209375 10.47183594 31.7621875 11.32648438 31.8046875 12.20703125 C31.82789063 13.08746094 31.85109375 13.96789062 31.875 14.875 C31.92140625 15.74769531 31.9678125 16.62039063 32.015625 17.51953125 C32.22117574 22.77688683 31.92937332 27.08009804 30 32 C27.375 33.9375 27.375 33.9375 25 35 C25 34.34 25 33.68 25 33 C25.66 33 26.32 33 27 33 C28.04630361 29.86108918 28.12914394 27.63706954 28.1328125 24.34375 C28.13410156 23.23902344 28.13539063 22.13429688 28.13671875 20.99609375 C28.13091797 19.26552734 28.13091797 19.26552734 28.125 17.5 C28.12886719 16.34628906 28.13273438 15.19257813 28.13671875 14.00390625 C28.13542969 12.89917969 28.13414062 11.79445313 28.1328125 10.65625 C28.13168457 9.64369141 28.13055664 8.63113281 28.12939453 7.58789062 C28.11024476 4.88330389 28.11024476 4.88330389 27 2 C18.09 1.67 9.18 1.34 0 1 C0 0.67 0 0.34 0 0 Z " fill="#156A4A" transform="translate(500,465)"/>
<path d="M0 0 C0.33 0 0.66 0 1 0 C1.01981934 0.77714355 1.03963867 1.55428711 1.06005859 2.35498047 C1.15507009 5.86200691 1.26484559 9.36841794 1.375 12.875 C1.4059375 14.09832031 1.436875 15.32164062 1.46875 16.58203125 C1.52675781 18.33193359 1.52675781 18.33193359 1.5859375 20.1171875 C1.6173584 21.19597168 1.6487793 22.27475586 1.68115234 23.38623047 C1.74676322 26.15761654 1.74676322 26.15761654 4 28 C6.71615864 28.37207354 6.71615864 28.37207354 9.8828125 28.4140625 C11.04941406 28.45273437 12.21601563 28.49140625 13.41796875 28.53125 C15.25294922 28.57765625 15.25294922 28.57765625 17.125 28.625 C18.35605469 28.66367187 19.58710938 28.70234375 20.85546875 28.7421875 C23.90349376 28.8366999 26.95150862 28.92225494 30 29 C30 29.66 30 30.32 30 31 C27.02128482 31.22423695 24.04314074 31.42969368 21.0625 31.625 C20.23169922 31.68945312 19.40089844 31.75390625 18.54492188 31.8203125 C12.82326505 32.1765246 7.45031859 31.94491476 2 30 C0 28 0 28 -0.22705078 25.20263672 C-0.21134033 23.45877686 -0.21134033 23.45877686 -0.1953125 21.6796875 C-0.18886719 20.42285156 -0.18242187 19.16601562 -0.17578125 17.87109375 C-0.15902344 16.55238281 -0.14226562 15.23367188 -0.125 13.875 C-0.11496983 12.53516279 -0.10584404 11.19531848 -0.09765625 9.85546875 C-0.07402075 6.57013427 -0.04107234 3.28515535 0 0 Z " fill="#166E4E" transform="translate(411,470)"/>
<path d="M0 0 C4.43728151 -0.11586755 8.87417591 -0.18714058 13.3125 -0.25 C14.57513672 -0.28351563 15.83777344 -0.31703125 17.13867188 -0.3515625 C18.95141602 -0.37089844 18.95141602 -0.37089844 20.80078125 -0.390625 C21.91622314 -0.41157227 23.03166504 -0.43251953 24.1809082 -0.45410156 C27 0 27 0 28.86914062 1.65820312 C30.27746216 4.5745719 30.34247264 6.62512092 30.29296875 9.859375 C30.28330078 10.97441406 30.27363281 12.08945312 30.26367188 13.23828125 C30.23853516 14.39714844 30.21339844 15.55601562 30.1875 16.75 C30.16719727 18.51150391 30.16719727 18.51150391 30.14648438 20.30859375 C30.1111478 23.20619298 30.06180979 26.10286427 30 29 C29.34 29.33 28.68 29.66 28 30 C28 21.09 28 12.18 28 3 C24.5750464 2.1437616 21.84918455 1.81353347 18.359375 1.68359375 C17.28945313 1.64169922 16.21953125 1.59980469 15.1171875 1.55664062 C14.00601562 1.51732422 12.89484375 1.47800781 11.75 1.4375 C10.06003906 1.37272461 10.06003906 1.37272461 8.3359375 1.30664062 C5.55741046 1.20067985 2.77879609 1.09860858 0 1 C0 0.67 0 0.34 0 0 Z " fill="#58DDA5" transform="translate(415,466)"/>
</svg>
